# xmcd
#
# Track frame offsets:
#	150
#	21615
#	42751
#	68253
#	92253
#	112579
#
# Disc length: 1938 seconds
#
# Revision: 1
# Processed by: cddbd v1.5.1PL0 Copyright (c) Steve Scherf et al.
# Submitted via: CDex 1.50Beta5
#
DISCID=37079006
DTITLE=東京60WATTS - すべてのバカモノたちへ
DYEAR=1900
DGENRE=Pop
TTITLE0=目白通りいつも通り
TTITLE1=オーリンズ!
TTITLE2=西武線のうた
TTITLE3=昇天
TTITLE4=つむじ
TTITLE5=すべてのバカモノたちへ
EXTD=
EXTT0=
EXTT1=
EXTT2=
EXTT3=
EXTT4=
EXTT5=
PLAYORDER=
